USFL
nRows=107
nColumns=2
inDegrees=yes
endheader
time	soleus_r	
3.14919	 67.479500	
3.22077	 67.547435	
3.29234	 67.344683	
3.36391	 67.424056	
3.43548	 67.611415	
3.50706	 67.748156	
3.57863	 67.757101	
3.6502	 67.368505	
3.72177	 67.121462	
3.79335	 67.117584	
3.86492	 67.253780	
3.93649	 67.281231	
4.00806	 67.223626	
4.07964	 67.672474	
4.15121	 67.752102	
4.22278	 67.779883	
4.29435	 67.480280	
4.36593	 67.592047	
4.4375	 67.657621	
4.50907	 67.624707	
4.58065	 67.500030	
4.65222	 67.509461	
4.72379	 67.637657	
4.79536	 67.681583	
4.86694	 67.716314	
4.93851	 67.675195	
5.01008	 67.637756	
5.08165	 67.860182	
5.15323	 67.911001	
5.2248	 67.910967	
5.29637	 67.819545	
5.36794	 68.033342	
5.43952	 67.853318	
5.51109	 67.998915	
5.58266	 67.938563	
5.65423	 52.994079	
5.72581	 52.396555	
5.79738	 44.506668	
5.86895	 44.193867	
5.94052	 44.277427	
6.0121	 42.473071	
6.08367	 41.321536	
6.15524	 37.753453	
6.22681	 37.301384	
6.29839	 37.149741	
6.36996	 37.136302	
6.44153	 37.684727	
6.5131	 37.821459	
6.58468	 37.863879	
6.65625	 37.294495	
6.72782	 37.727317	
6.7994	 37.713000	
6.87097	 37.526432	
6.94254	 38.079750	
7.01411	 37.847429	
7.08569	 37.697576	
7.15726	 37.816458	
7.22883	 37.712924	
7.3004	 37.747667	
7.37198	 37.350320	
7.44355	 37.476297	
7.51512	 37.217429	
7.58669	 36.909317	
7.65827	 37.067299	
7.72984	 37.048469	
7.80141	 36.981975	
7.87298	 37.074029	
7.94456	 37.094497	
8.01613	 36.929971	
8.0877	 37.057537	
8.15927	 37.188703	
8.23085	 37.297083	
8.30242	 37.212768	
8.37399	 36.992848	
8.44556	 37.016727	
8.51714	 37.176303	
8.58871	 36.981509	
8.66028	 36.818125	
8.73185	 36.901229	
8.80343	 36.932791	
8.875	 36.930272	
8.94657	 37.338527	
9.01815	 37.077852	
9.08972	 37.139585	
9.16129	 37.282322	
9.23286	 36.960555	
9.30444	 37.142460	
9.37601	 37.202543	
9.44758	 37.259570	
9.51915	 37.178636	
9.59073	 37.162482	
9.6623	 37.129166	
9.73387	 37.116152	
9.80544	 37.126201	
9.87702	 37.215898	
9.94859	 37.251053	
10.0202	 37.241220	
10.0917	 37.377524	
10.1633	 37.153108	
10.2349	 37.101246	
10.3065	 36.636083	
10.378	 37.120494	
10.4496	 37.020163	
10.5212	 39.980911	
10.5927	 40.097740	
10.6643	 42.497293	
10.7359	 42.435080	
